# xmcd
#
# Track frame offsets:
#	150
#	14404
#	28136
#	42002
#	56837
#	73808
#	87243
#	111794
#
# Disc length: 1633 seconds
#
# Revision: 2
# Processed by: cddbd v1.4PL0 Copyright (c) Steve Scherf et al.
# Submitted via: audiograbber 1.81.01
#
DISCID=69065f08
DTITLE=Mark Weigle - Pride Sampler '03
DYEAR=2002
DGENRE=Country
TTITLE0=A Good Day (from All That Matters)
TTITLE1=What I Like About You (May '03)
TTITLE2=AZT (from CD to be released May '03)
TTITLE3=Two Cowboy Waltz (from The Truth Is)
TTITLE4=Jimmy (from CD to be released May '03)
TTITLE5=Bears (from "out of the Loop")
TTITLE6=In the Last 5 Minutes - "Out of the Loop"
TTITLE7=Data Track
EXTD=from MP3.com
EXTT0=
EXTT1=
EXTT2=
EXTT3=
EXTT4=
EXTT5=
EXTT6=
EXTT7=
PLAYORDER=
